STARTFONT 2.1
FONT -ghost-FIXME-Regular-R-Normal--13-120-75-75-P-60-ISO10646-1
SIZE 12 75 75
FONTBOUNDINGBOX 5 9 0 -3
STARTPROPERTIES 25
FOUNDRY "ghost"
FAMILY_NAME "FIXME"
WEIGHT_NAME "Regular"
SLANT "R"
SETWIDTH_NAME "Normal"
ADD_STYLE_NAME ""
PIXEL_SIZE 13
POINT_SIZE 120
RESOLUTION_X 75
RESOLUTION_Y 75
SPACING "P"
AVERAGE_WIDTH 60
CHARSET_REGISTRY "ISO10646"
CHARSET_ENCODING "1"
FONT_ASCENT 10
FONT_DESCENT 3
CAP_HEIGHT 7
X_HEIGHT 5
COPYRIGHT ""
BITED_DWIDTH 6
BITED_WIDTHS "95 H4sIAAAAAAAAA2NgQAAAb8bVewwAAAA="
BITED_TABLE_WIDTH -16
BITED_TABLE_CELL_SCALE 2
BITED_EDITOR_GRID_SIZE 32
BITED_EDITOR_CELL_SIZE 12
ENDPROPERTIES
CHARS 95
STARTCHAR U+0020
ENCODING 32
SWIDTH 1152 0
DWIDTH 6 0
BBX 0 0 0 0
BITMAP
ENDCHAR
STARTCHAR U+0021
ENCODING 33
SWIDTH 1152 0
DWIDTH 6 0
BBX 1 7 3 0
BITMAP
80
80
80
80
80
00
80
ENDCHAR
STARTCHAR U+0022
ENCODING 34
SWIDTH 1152 0
DWIDTH 6 0
BBX 3 3 2 5
BITMAP
A0
A0
A0
ENDCHAR
STARTCHAR U+0023
ENCODING 35
SWIDTH 1152 0
DWIDTH 6 0
BBX 5 7 1 0
BITMAP
50
50
F8
50
F8
50
50
ENDCHAR
STARTCHAR U+0024
ENCODING 36
SWIDTH 1152 0
DWIDTH 6 0
BBX 5 7 1 0
BITMAP
20
70
A0
70
28
70
20
ENDCHAR
STARTCHAR U+0025
ENCODING 37
SWIDTH 1152 0
DWIDTH 6 0
BBX 5 7 1 0
BITMAP
C0
C8
10
20
40
98
18
ENDCHAR
STARTCHAR U+0026
ENCODING 38
SWIDTH 1152 0
DWIDTH 6 0
BBX 5 6 1 0
BITMAP
60
80
40
A8
90
68
ENDCHAR
STARTCHAR U+0027
ENCODING 39
SWIDTH 1152 0
DWIDTH 6 0
BBX 1 3 3 5
BITMAP
80
80
80
ENDCHAR
STARTCHAR U+0028
ENCODING 40
SWIDTH 1152 0
DWIDTH 6 0
BBX 3 9 2 -1
BITMAP
20
40
40
80
80
80
40
40
20
ENDCHAR
STARTCHAR U+0029
ENCODING 41
SWIDTH 1152 0
DWIDTH 6 0
BBX 3 9 2 -1
BITMAP
80
40
40
20
20
20
40
40
80
ENDCHAR
STARTCHAR U+002A
ENCODING 42
SWIDTH 1152 0
DWIDTH 6 0
BBX 5 5 1 1
BITMAP
20
A8
70
A8
20
ENDCHAR
STARTCHAR U+002B
ENCODING 43
SWIDTH 1152 0
DWIDTH 6 0
BBX 5 5 1 1
BITMAP
20
20
F8
20
20
ENDCHAR
STARTCHAR U+002C
ENCODING 44
SWIDTH 1152 0
DWIDTH 6 0
BBX 2 3 2 -1
BITMAP
C0
40
80
ENDCHAR
STARTCHAR U+002D
ENCODING 45
SWIDTH 1152 0
DWIDTH 6 0
BBX 4 1 1 3
BITMAP
F0
ENDCHAR
STARTCHAR U+002E
ENCODING 46
SWIDTH 1152 0
DWIDTH 6 0
BBX 2 2 2 0
BITMAP
C0
C0
ENDCHAR
STARTCHAR U+002F
ENCODING 47
SWIDTH 1152 0
DWIDTH 6 0
BBX 5 9 1 -1
BITMAP
08
10
10
20
20
20
40
40
80
ENDCHAR
STARTCHAR U+0030
ENCODING 48
SWIDTH 1152 0
DWIDTH 6 0
BBX 5 7 1 0
BITMAP
70
88
98
A8
C8
88
70
ENDCHAR
STARTCHAR U+0031
ENCODING 49
SWIDTH 1152 0
DWIDTH 6 0
BBX 5 7 1 0
BITMAP
20
60
A0
20
20
20
F8
ENDCHAR
STARTCHAR U+0032
ENCODING 50
SWIDTH 1152 0
DWIDTH 6 0
BBX 5 7 1 0
BITMAP
70
88
08
10
20
40
F8
ENDCHAR
STARTCHAR U+0033
ENCODING 51
SWIDTH 1152 0
DWIDTH 6 0
BBX 5 7 1 0
BITMAP
70
88
08
30
08
88
70
ENDCHAR
STARTCHAR U+0034
ENCODING 52
SWIDTH 1152 0
DWIDTH 6 0
BBX 5 7 1 0
BITMAP
10
30
50
90
F8
10
10
ENDCHAR
STARTCHAR U+0035
ENCODING 53
SWIDTH 1152 0
DWIDTH 6 0
BBX 5 7 1 0
BITMAP
F8
80
F0
08
08
88
70
ENDCHAR
STARTCHAR U+0036
ENCODING 54
SWIDTH 1152 0
DWIDTH 6 0
BBX 5 7 1 0
BITMAP
30
40
80
F0
88
88
70
ENDCHAR
STARTCHAR U+0037
ENCODING 55
SWIDTH 1152 0
DWIDTH 6 0
BBX 5 7 1 0
BITMAP
F8
08
10
20
20
40
40
ENDCHAR
STARTCHAR U+0038
ENCODING 56
SWIDTH 1152 0
DWIDTH 6 0
BBX 5 7 1 0
BITMAP
70
88
88
70
88
88
70
ENDCHAR
STARTCHAR U+0039
ENCODING 57
SWIDTH 1152 0
DWIDTH 6 0
BBX 5 7 1 0
BITMAP
70
88
88
78
08
10
60
ENDCHAR
STARTCHAR U+003A
ENCODING 58
SWIDTH 1152 0
DWIDTH 6 0
BBX 2 6 2 0
BITMAP
C0
C0
00
00
C0
C0
ENDCHAR
STARTCHAR U+003B
ENCODING 59
SWIDTH 1152 0
DWIDTH 6 0
BBX 2 7 2 -1
BITMAP
C0
C0
00
00
C0
40
80
ENDCHAR
STARTCHAR U+003C
ENCODING 60
SWIDTH 1152 0
DWIDTH 6 0
BBX 4 7 1 0
BITMAP
10
20
40
80
40
20
10
ENDCHAR
STARTCHAR U+003D
ENCODING 61
SWIDTH 1152 0
DWIDTH 6 0
BBX 5 4 1 1
BITMAP
F8
00
00
F8
ENDCHAR
STARTCHAR U+003E
ENCODING 62
SWIDTH 1152 0
DWIDTH 6 0
BBX 4 7 2 0
BITMAP
80
40
20
10
20
40
80
ENDCHAR
STARTCHAR U+003F
ENCODING 63
SWIDTH 1152 0
DWIDTH 6 0
BBX 5 8 1 0
BITMAP
70
88
08
10
20
20
00
20
ENDCHAR
STARTCHAR U+0040
ENCODING 64
SWIDTH 1152 0
DWIDTH 6 0
BBX 5 6 1 0
BITMAP
70
88
A8
B8
80
70
ENDCHAR
STARTCHAR U+0041
ENCODING 65
SWIDTH 1152 0
DWIDTH 6 0
BBX 5 7 1 0
BITMAP
20
20
50
50
70
88
88
ENDCHAR
STARTCHAR U+0042
ENCODING 66
SWIDTH 1152 0
DWIDTH 6 0
BBX 5 7 1 0
BITMAP
F0
88
88
F0
88
88
F0
ENDCHAR
STARTCHAR U+0043
ENCODING 67
SWIDTH 1152 0
DWIDTH 6 0
BBX 5 7 1 0
BITMAP
70
88
80
80
80
88
70
ENDCHAR
STARTCHAR U+0044
ENCODING 68
SWIDTH 1152 0
DWIDTH 6 0
BBX 5 7 1 0
BITMAP
E0
90
88
88
88
90
E0
ENDCHAR
STARTCHAR U+0045
ENCODING 69
SWIDTH 1152 0
DWIDTH 6 0
BBX 5 7 1 0
BITMAP
F8
80
80
E0
80
80
F8
ENDCHAR
STARTCHAR U+0046
ENCODING 70
SWIDTH 1152 0
DWIDTH 6 0
BBX 5 7 1 0
BITMAP
F8
80
80
E0
80
80
80
ENDCHAR
STARTCHAR U+0047
ENCODING 71
SWIDTH 1152 0
DWIDTH 6 0
BBX 5 7 1 0
BITMAP
70
88
80
98
88
88
78
ENDCHAR
STARTCHAR U+0048
ENCODING 72
SWIDTH 1152 0
DWIDTH 6 0
BBX 5 7 1 0
BITMAP
88
88
88
F8
88
88
88
ENDCHAR
STARTCHAR U+0049
ENCODING 73
SWIDTH 1152 0
DWIDTH 6 0
BBX 5 7 1 0
BITMAP
F8
20
20
20
20
20
F8
ENDCHAR
STARTCHAR U+004A
ENCODING 74
SWIDTH 1152 0
DWIDTH 6 0
BBX 5 8 1 -1
BITMAP
78
10
10
10
10
10
90
60
ENDCHAR
STARTCHAR U+004B
ENCODING 75
SWIDTH 1152 0
DWIDTH 6 0
BBX 5 7 1 0
BITMAP
88
90
A0
C0
A0
90
88
ENDCHAR
STARTCHAR U+004C
ENCODING 76
SWIDTH 1152 0
DWIDTH 6 0
BBX 5 7 1 0
BITMAP
80
80
80
80
80
80
F8
ENDCHAR
STARTCHAR U+004D
ENCODING 77
SWIDTH 1152 0
DWIDTH 6 0
BBX 5 7 1 0
BITMAP
88
D8
A8
88
88
88
88
ENDCHAR
STARTCHAR U+004E
ENCODING 78
SWIDTH 1152 0
DWIDTH 6 0
BBX 5 7 1 0
BITMAP
88
C8
A8
98
88
88
88
ENDCHAR
STARTCHAR U+004F
ENCODING 79
SWIDTH 1152 0
DWIDTH 6 0
BBX 5 7 1 0
BITMAP
70
88
88
88
88
88
70
ENDCHAR
STARTCHAR U+0050
ENCODING 80
SWIDTH 1152 0
DWIDTH 6 0
BBX 5 7 1 0
BITMAP
F0
88
88
F0
80
80
80
ENDCHAR
STARTCHAR U+0051
ENCODING 81
SWIDTH 1152 0
DWIDTH 6 0
BBX 5 7 1 0
BITMAP
70
88
88
88
A8
90
68
ENDCHAR
STARTCHAR U+0052
ENCODING 82
SWIDTH 1152 0
DWIDTH 6 0
BBX 5 7 1 0
BITMAP
F0
88
88
F0
A0
90
88
ENDCHAR
STARTCHAR U+0053
ENCODING 83
SWIDTH 1152 0
DWIDTH 6 0
BBX 5 7 1 0
BITMAP
70
88
80
70
08
88
70
ENDCHAR
STARTCHAR U+0054
ENCODING 84
SWIDTH 1152 0
DWIDTH 6 0
BBX 5 7 1 0
BITMAP
F8
20
20
20
20
20
20
ENDCHAR
STARTCHAR U+0055
ENCODING 85
SWIDTH 1152 0
DWIDTH 6 0
BBX 5 7 1 0
BITMAP
88
88
88
88
88
88
70
ENDCHAR
STARTCHAR U+0056
ENCODING 86
SWIDTH 1152 0
DWIDTH 6 0
BBX 5 7 1 0
BITMAP
88
88
50
50
50
20
20
ENDCHAR
STARTCHAR U+0057
ENCODING 87
SWIDTH 1152 0
DWIDTH 6 0
BBX 5 7 1 0
BITMAP
A8
A8
A8
A8
A8
50
50
ENDCHAR
STARTCHAR U+0058
ENCODING 88
SWIDTH 1152 0
DWIDTH 6 0
BBX 5 7 1 0
BITMAP
88
88
50
20
50
88
88
ENDCHAR
STARTCHAR U+0059
ENCODING 89
SWIDTH 1152 0
DWIDTH 6 0
BBX 5 7 1 0
BITMAP
88
88
50
20
20
20
20
ENDCHAR
STARTCHAR U+005A
ENCODING 90
SWIDTH 1152 0
DWIDTH 6 0
BBX 5 7 1 0
BITMAP
F8
08
10
20
40
80
F8
ENDCHAR
STARTCHAR U+005B
ENCODING 91
SWIDTH 1152 0
DWIDTH 6 0
BBX 3 9 2 -1
BITMAP
E0
80
80
80
80
80
80
80
E0
ENDCHAR
STARTCHAR U+005C
ENCODING 92
SWIDTH 1152 0
DWIDTH 6 0
BBX 5 9 1 -1
BITMAP
80
40
40
20
20
20
10
10
08
ENDCHAR
STARTCHAR U+005D
ENCODING 93
SWIDTH 1152 0
DWIDTH 6 0
BBX 3 9 2 -1
BITMAP
E0
20
20
20
20
20
20
20
E0
ENDCHAR
STARTCHAR U+005E
ENCODING 94
SWIDTH 1152 0
DWIDTH 6 0
BBX 5 3 1 5
BITMAP
20
50
88
ENDCHAR
STARTCHAR U+005F
ENCODING 95
SWIDTH 1152 0
DWIDTH 6 0
BBX 5 1 1 -1
BITMAP
F8
ENDCHAR
STARTCHAR U+0060
ENCODING 96
SWIDTH 1152 0
DWIDTH 6 0
BBX 3 3 2 5
BITMAP
80
40
20
ENDCHAR
STARTCHAR U+0061
ENCODING 97
SWIDTH 1152 0
DWIDTH 6 0
BBX 5 5 1 0
BITMAP
70
08
78
88
78
ENDCHAR
STARTCHAR U+0062
ENCODING 98
SWIDTH 1152 0
DWIDTH 6 0
BBX 5 8 1 0
BITMAP
80
80
80
B0
C8
88
88
F0
ENDCHAR
STARTCHAR U+0063
ENCODING 99
SWIDTH 1152 0
DWIDTH 6 0
BBX 5 5 1 0
BITMAP
70
80
80
88
70
ENDCHAR
STARTCHAR U+0064
ENCODING 100
SWIDTH 1152 0
DWIDTH 6 0
BBX 5 8 1 0
BITMAP
08
08
08
68
98
88
88
78
ENDCHAR
STARTCHAR U+0065
ENCODING 101
SWIDTH 1152 0
DWIDTH 6 0
BBX 5 5 1 0
BITMAP
70
88
F8
80
70
ENDCHAR
STARTCHAR U+0066
ENCODING 102
SWIDTH 1152 0
DWIDTH 6 0
BBX 5 8 1 0
BITMAP
18
20
20
F8
20
20
20
20
ENDCHAR
STARTCHAR U+0067
ENCODING 103
SWIDTH 1152 0
DWIDTH 6 0
BBX 5 7 1 -2
BITMAP
68
98
88
88
78
08
70
ENDCHAR
STARTCHAR U+0068
ENCODING 104
SWIDTH 1152 0
DWIDTH 6 0
BBX 5 7 1 0
BITMAP
80
80
B0
C8
88
88
88
ENDCHAR
STARTCHAR U+0069
ENCODING 105
SWIDTH 1152 0
DWIDTH 6 0
BBX 5 7 1 0
BITMAP
20
00
60
20
20
20
F8
ENDCHAR
STARTCHAR U+006A
ENCODING 106
SWIDTH 1152 0
DWIDTH 6 0
BBX 4 9 1 -2
BITMAP
10
00
30
10
10
10
10
90
60
ENDCHAR
STARTCHAR U+006B
ENCODING 107
SWIDTH 1152 0
DWIDTH 6 0
BBX 5 8 1 0
BITMAP
80
80
80
90
A0
C0
A0
98
ENDCHAR
STARTCHAR U+006C
ENCODING 108
SWIDTH 1152 0
DWIDTH 6 0
BBX 5 8 1 0
BITMAP
60
20
20
20
20
20
20
F8
ENDCHAR
STARTCHAR U+006D
ENCODING 109
SWIDTH 1152 0
DWIDTH 6 0
BBX 5 5 1 0
BITMAP
D0
A8
A8
A8
A8
ENDCHAR
STARTCHAR U+006E
ENCODING 110
SWIDTH 1152 0
DWIDTH 6 0
BBX 5 5 1 0
BITMAP
B0
C8
88
88
88
ENDCHAR
STARTCHAR U+006F
ENCODING 111
SWIDTH 1152 0
DWIDTH 6 0
BBX 5 5 1 0
BITMAP
70
88
88
88
70
ENDCHAR
STARTCHAR U+0070
ENCODING 112
SWIDTH 1152 0
DWIDTH 6 0
BBX 5 8 1 -3
BITMAP
B0
C8
88
88
F0
80
80
80
ENDCHAR
STARTCHAR U+0071
ENCODING 113
SWIDTH 1152 0
DWIDTH 6 0
BBX 5 8 1 -3
BITMAP
68
98
88
88
78
08
08
08
ENDCHAR
STARTCHAR U+0072
ENCODING 114
SWIDTH 1152 0
DWIDTH 6 0
BBX 5 5 1 0
BITMAP
B0
C8
80
80
80
ENDCHAR
STARTCHAR U+0073
ENCODING 115
SWIDTH 1152 0
DWIDTH 6 0
BBX 5 5 1 0
BITMAP
70
80
70
08
70
ENDCHAR
STARTCHAR U+0074
ENCODING 116
SWIDTH 1152 0
DWIDTH 6 0
BBX 5 7 1 0
BITMAP
40
40
F0
40
40
48
30
ENDCHAR
STARTCHAR U+0075
ENCODING 117
SWIDTH 1152 0
DWIDTH 6 0
BBX 5 5 1 0
BITMAP
88
88
88
98
68
ENDCHAR
STARTCHAR U+0076
ENCODING 118
SWIDTH 1152 0
DWIDTH 6 0
BBX 5 5 1 0
BITMAP
88
88
50
50
20
ENDCHAR
STARTCHAR U+0077
ENCODING 119
SWIDTH 1152 0
DWIDTH 6 0
BBX 5 5 1 0
BITMAP
A8
A8
A8
A8
50
ENDCHAR
STARTCHAR U+0078
ENCODING 120
SWIDTH 1152 0
DWIDTH 6 0
BBX 5 5 1 0
BITMAP
88
50
20
50
88
ENDCHAR
STARTCHAR U+0079
ENCODING 121
SWIDTH 1152 0
DWIDTH 6 0
BBX 5 7 1 -2
BITMAP
88
88
50
50
20
20
C0
ENDCHAR
STARTCHAR U+007A
ENCODING 122
SWIDTH 1152 0
DWIDTH 6 0
BBX 5 5 1 0
BITMAP
F8
10
20
40
F8
ENDCHAR
STARTCHAR U+007B
ENCODING 123
SWIDTH 1152 0
DWIDTH 6 0
BBX 5 9 1 -1
BITMAP
18
20
20
20
C0
20
20
20
18
ENDCHAR
STARTCHAR U+007C
ENCODING 124
SWIDTH 1152 0
DWIDTH 6 0
BBX 1 9 3 -1
BITMAP
80
80
80
80
80
80
80
80
80
ENDCHAR
STARTCHAR U+007D
ENCODING 125
SWIDTH 1152 0
DWIDTH 6 0
BBX 5 9 1 -1
BITMAP
C0
20
20
20
18
20
20
20
C0
ENDCHAR
STARTCHAR U+007E
ENCODING 126
SWIDTH 1152 0
DWIDTH 6 0
BBX 5 3 1 2
BITMAP
48
A8
90
ENDCHAR
ENDFONT
